<svg xmlns="http://www.w3.org/2000/svg" width="24" height="24" viewBox="0 0 24 24" fill="none">
<path fill-rule="evenodd" clip-rule="evenodd" d="M23.6535 9.88666L21.4979 11.9963L23.6534 14.1058C24.2957 14.7139 23.9967 15.7951 23.1535 15.9967L20.2168 16.7463L21.0447 19.6532C21.2786 20.4892 20.4904 21.2781 19.6543 21.044L16.7483 20.2159L15.9991 23.1536C15.7957 24.0046 14.6948 24.2859 14.1089 23.6537L12 21.4974L9.89105 23.6537C9.29906 24.2794 8.20889 24.0243 8.00081 23.1536L7.25156 20.2159L4.34559 21.044C3.50972 21.278 2.72128 20.4894 2.95523 19.6532L3.78309 16.7463L0.846373 15.9967C0.003561 15.7952 -0.296064 14.7141 0.346499 14.1058L2.50205 11.9963L0.346499 9.88666C-0.295783 9.27865 0.00323279 8.19743 0.84642 7.99582L3.78314 7.24629L2.95528 4.33933C2.72137 3.50336 3.50953 2.71441 4.34564 2.94851L7.25165 3.77665L8.0009 0.838943C8.20144 -0.000213614 9.29911 -0.286948 9.89114 0.33888L12 2.51111L14.1089 0.338833C14.7077 -0.294167 15.8009 0.00925521 15.9991 0.838896L16.7484 3.7766L19.6544 2.94846C20.4902 2.71446 21.2787 3.50313 21.0447 4.33929L20.2169 7.24624L23.1536 7.99577C23.9964 8.19733 24.296 9.27836 23.6535 9.88666ZM15.7071 10.7071C16.0976 10.3166 16.0976 9.68343 15.7071 9.29291C15.3166 8.90238 14.6834 8.90238 14.2929 9.29291L11 12.5858L9.70711 11.2929C9.31658 10.9024 8.68342 10.9024 8.29289 11.2929C7.90237 11.6834 7.90237 12.3166 8.29289 12.7071L10.2929 14.7071C10.6834 15.0976 11.3166 15.0976 11.7071 14.7071L15.7071 10.7071Z"/>
</svg>