<svg xmlns="http://www.w3.org/2000/svg" x="0" y="0" enable-background="new 0 0 64 64" version="1.1" viewBox="0 0 64 64" xml:space="preserve" aria-hidden="true"><path d="M59.7,8H4.3C1.9,8,0,9.9,0,12.6v39.2C0,54.1,1.9,56,4.3,56h55.4c1.1,0,2.4-0.5,3.2-1.3c0.8-0.8,1.3-2.1,1.1-2.9V12.6 C63.9,9.9,62.1,8,59.7,8z M5.3,50.6V13.4h53.3v37.3H5.3z"/><path d="M24 29.3c0-4.5-3.5-8-8-8s-8 3.5-8 8 3.5 8 8 8S24 33.6 24 29.3zM13.3 29.3c0-1.3 1.1-2.7 2.7-2.7s2.7 1.1 2.7 2.7S17.6 32 16 32 13.3 30.7 13.3 29.3zM50.6 42.7H13.3c-1.6 0-2.7 1.1-2.7 2.7s1.1 2.7 2.7 2.7h37.3c1.6 0 2.7-1.1 2.7-2.7S52.2 42.7 50.6 42.7zM50.6 21.3H40c-1.6 0-2.7 1.1-2.7 2.7s1.1 2.7 2.7 2.7h10.7c1.6 0 2.7-1.1 2.7-2.7S52.2 21.3 50.6 21.3zM50.6 32H40c-1.6 0-2.7 1.1-2.7 2.7 0 1.6 1.1 2.7 2.7 2.7h10.7c1.6 0 2.7-1.1 2.7-2.7C53.3 33.1 52.2 32 50.6 32z"/></svg>