<svg width="75" height="75" viewBox="0 0 75 75" fill="none" xmlns="http://www.w3.org/2000/svg">
<mask id="mask0_11_5" style="mask-type:alpha" maskUnits="userSpaceOnUse" x="0" y="0" width="75" height="75">
<rect width="75" height="75" fill="#D9D9D9"/>
</mask>
<g mask="url(#mask0_11_5)">
<path d="M-83 47.03C-82.51 50.13 -81.27 55.25 -80.81 58.44C-80.48 60.7 -81.14 65.99 -79.7 67.65C-75.86 72.06 -77.24 57.03 -74.25 54.86C-72.57 56.59 -72.97 58.95 -72.27 60.82C-70.23 59.07 -70.81 50.9 -66.48 55.58C-65.64 56.49 -66.3 60.82 -64.41 61.04C-61.93 61.33 -62.75 56.85 -61.78 55.84C-56.68 50.6 -58.61 64.05 -56.2 65.87C-51.94 69.1 -53.73 58.39 -52.76 56.21C-51.45 53.29 -50.18 52.45 -47.38 53.97C-43.92 55.85 -45.31 58.56 -43.91 61.83C-40.34 60.22 -41.52 56.94 -39.57 54.78C-34.66 49.38 -34.15 58.93 -33.32 60.78C-29.57 69.21 -29.59 61.21 -27.71 57.33C-26.62 54.89 -25.33 49.25 -22.39 52.67C-20.6 54.76 -22.96 60.5 -19.06 60.65C-18.42 58.39 -18.86 53.74 -17.42 51.84C-13.48 53.3 -16.54 59.7 -12.08 60.49C-10.6 58.59 -12.17 55.73 -10.65 53.98C-7.83001 50.74 -8.8 56.13 -7.22 56.58C-4.83 57.26 -3.74001 54.89 -1.90001 54.21C1.05999 53.12 3.22 53.57 6.11 54.33C8.25 54.89 11.23 56.88 13.54 56.22C15.41 55.69 15.34 53.37 17.6 52.98C24.25 51.81 21.01 60.83 24.17 63.15C25.76 60.21 24.56 52.79 28.74 53C32.59 53.19 30.96 60.94 34.37 63.13C35.5 61.57 34.98 53.49 38.27 55.01C41.11 56.33 37.95 64.83 41.61 66.71C43.36 63.93 42 60.05 43.38 57.25C46.05 51.83 48.21 55.91 48.29 60.04C52.17 59.84 48.99 55.86 51.29 54.84C54.11 53.6 53.54 58.39 53.97 59.43C56.92 66.58 56.27 58.45 57.98 55.6C58.52 57.39 58.76 59.74 59.39 61.84C61.86 60.31 59.61 56.59 62.33 54.83C62.46 58.78 63.2 65.06 65.51 68.15C69.01 64.96 64.4 57.57 69.4 55.3C70.35 56.28 70.59 57.43 70.4 58.78C70.11 60.85 71.79 65.95 75.2 65.03C77.41 64.43 77.4 60.04 77.92 58.31C80.96 48.34 79.94 60.73 82.75 62.29C83.23 59.71 83.34 56.72 85.59 54.85C88.84 57.36 85.18 63.82 89.5 65.71C90.5 63.72 90.28 56.53 93.1 55.76C96.99 54.69 96.61 65.13 100.02 66.26C100.65 63.66 101.29 57.66 104.47 57.53C104.94 64.4 109.12 57.1 110.97 57C114.81 56.8 114.31 64.36 116.49 66.71C119.78 65.23 118.55 60.71 121.56 59.21C125.58 57.2 124.6 64 126.81 66.16C129.43 63.49 127.42 52.08 132.92 53.68C135.58 55.01 136.13 60.15 136.58 62.33C138.58 71.97 140.67 61.17 142.23 57.92C143.96 54.33 145.49 53.86 146.62 57.68C147.33 60.07 144.64 65.5 149.27 65.38C149.91 63.24 148.8 58.67 150.09 56.91C152.9 53.07 153.52 58.31 154.16 60.78C154.8 63.25 155.89 69.54 158.2 65.78C159.72 63.31 157.39 59.01 159.16 56.2C161.86 55.77 162.19 58.41 162.74 60.51C163.06 59.92 164.22 57.46 165.05 57.21C168.55 56.15 167.36 57.57 168.94 59.57C173.46 65.26 170.46 59.82 174.81 58.1C180.47 55.86 178.9 65.89 183.25 65.82C186.72 65.76 185.99 58.26 190.53 57.87C195.07 57.48 192.58 61.44 195.21 61.88C196.86 62.16 197.3 59.01 198.53 58.64C203.81 57.06 201.33 63.54 203.04 66.53C207.65 74.59 205.6 50.1 210.53 57.87C211.23 58.97 209.72 62.88 211.83 63.24C214.55 63.71 213.46 59.57 214.05 58.74C218.37 52.61 217.77 61.34 219.27 64.37C221.22 62.28 219.67 55.68 224.27 55.54C229.22 55.38 223.89 64.18 228.49 64.01C231.79 63.89 228.31 55.4 232.46 54.78C236.87 54.12 236.24 63.37 237.22 65.7C239.23 63.82 238.29 61.75 239.29 59.42C240.56 56.5 239.49 55.53 242 53.66C246.91 50 248.07 58.75 250.07 61.35C252.74 60.25 251.91 52.52 256.45 55.19C260.15 57.37 255.62 65.27 261 65.79C261.26 63.5 260.95 58.14 263.61 56.86C268.32 54.59 267.16 61.32 268.72 63.56C271.7 61.65 271.15 55 275.1 56.43C278.6 57.7 276.26 62.91 279.59 64.89C281.34 62.65 280.53 59.57 282.77 57.63C286.22 54.63 284.05 58.53 286.29 60.35C289.61 63.04 295.35 50.89 296.64 61.37C298.48 60.3 299.13 55.93 301.87 56.05C305.27 56.2 304.12 61.46 306.56 62.7C310.46 64.66 312.16 57.66 313.18 55.32C316.51 47.67 319.41 54.8 319.68 59.59C321.92 59.19 323.71 54.52 326.5 56.3C328.04 57.29 325.97 64.37 329.26 64.01C331.11 63.81 330.87 57.65 332.99 56.63C337.79 54.34 336.69 60.3 338.31 62.25C341.51 60.98 339.63 54.82 344.81 56.17C344.59 58.85 343.23 63.49 346.23 65.03C349 62.62 346.77 58.31 350.21 55.79C351.33 58.26 351.1 68.11 353.97 60.31C354.46 58.97 353.61 54.94 356.17 55.4C357.89 55.71 357.82 60.35 357.81 61.79C358.11 61.84 358.42 61.91 358.62 62.12C360.72 60.79 360.08 58.08 361.84 56.26C362.23 60.61 363.19 61.84 364.72 57.32C365.58 54.78 367.75 49.77 369.7 47H-83V47.03Z" fill="url(#paint0_linear_11_5)"/>
<path d="M366.97 47.05C363.7 43.66 362.54 37.6 362.89 32.9C360.64 34.81 357.93 37.71 357.19 40.76C357.22 36.38 355.88 35.63 354.63 31.61C354.63 34.52 353.06 37.22 351.88 39.81C349.69 35.97 350.77 32.02 350.58 27.71C347.47 30.13 345.03 36.18 344.01 39.86C340.85 34.63 343.21 30.14 345.28 25.03C343.29 27.58 340.69 29.7 339.24 32.69C337.82 35.62 338.07 38.71 337.14 41.68C333.82 34.65 336.89 24.83 331.47 18.83C331.19 22.46 332.85 25.61 332.18 29.33C331.47 33.3 329.49 36.07 327.55 39.5C327.33 32.84 327.48 29.04 323.9 23.2C324.88 27.48 324.6 32.55 322.16 36.32C322.53 33.29 322.04 29.5 319.94 27.24C320.39 31.64 319.34 37.14 317.43 40.83C313.18 34.8 316.14 28.78 314.18 22.34C314.28 27.36 310.56 36.05 307.2 39.51C306.81 32.11 307.23 25.29 308.02 17.96C305.48 23.33 305.14 31.6 300.95 35.89C300.76 31.47 299.69 26.52 297.09 22.81C298.23 28.47 297.66 34.94 298.31 40.42C290.36 34.08 292.64 25.86 288.01 18.37C290.24 25.11 289.65 36.07 285.91 42.1C283.86 36.09 282.82 30.05 280.04 24.12C280.21 31.19 279.22 35.71 275.5 41.74C274.86 39.41 275.81 36.1 275.64 33.32C275.41 29.53 273.15 27.07 273.36 23.24C273.71 27.28 271.35 31.04 271.19 35.07C271.4 31.8 270.34 28.6 270.33 25.32C269.76 28.15 268.9 30.92 268.51 33.79C268.54 29.27 267.58 24.83 267.69 20.2C266.4 26.59 263.86 33.61 261.86 39.91C261.98 35.52 261.83 31.87 260.43 27.77C259.23 24.26 256.42 21.59 255.19 17.89C257.7 25.46 257.15 31.41 254.03 38.62C249.43 32.24 247.35 24.36 248.96 16.51C246.38 23.79 245.88 31.47 244.68 39.06C243.93 27.14 243.15 18.56 237.15 7.91C238.23 12.06 240.69 16.1 240.65 20.49C240.59 26.85 236.46 34.23 232.6 39.09C232.63 35.83 232.61 32.72 232.15 29.51C231.74 26.64 229.93 23.39 230.4 20.52C231.03 26.25 229.5 32.95 226.01 37.71C222.2 29.93 222.18 22.55 225.59 14.36C218.27 21.46 220.41 30.87 215.39 38.58C214.98 30.2 215.84 25.27 209.12 19.65C213.36 26.6 209.46 33.57 206.39 39.81C206.97 34.26 205.91 28.99 203.35 24.19C204.69 29.31 203.05 33.71 200.59 38.19C196.82 32.17 198.73 24.88 198.96 18.23C197.73 21.69 195.5 24.66 194.24 28.22C192.93 31.93 191.74 37.22 188.82 39.95C182.83 34.03 182.64 19.71 188.85 15.21C182.93 22.62 179.78 29.6 178.96 39.06C179.46 27.8 179.7 16.4 175.16 6C177.44 11.74 177.85 18.91 177.12 25C176.53 29.93 173.63 33.24 171.97 37.62C173.7 31.5 172.17 19.44 166.97 15.12C170.05 22.32 170.45 29.54 168.33 37.16C168.44 29.59 166.73 27.09 163.07 20.59C163.87 25.19 163.72 31.13 161.8 35.5C155.07 27.24 159.14 19.74 162.94 11.37C157.47 18.62 151.44 23.51 150.17 33.21C150.17 26.01 148.35 16.72 142.56 11.7C147.79 20.59 145.73 29.4 143.88 39.08C137.77 30.95 139.88 27.07 139.76 17.5C134.76 24.53 131.79 30.91 129.43 38.99C129.19 35.95 129.82 32.6 129.36 29.57C128.66 24.99 125.48 22.51 122.81 18.89C124.02 25.48 124.05 32.01 121.25 38.23C111.76 31.11 119.84 17.06 120.46 8.19C112.37 16.85 112.36 28.79 111.53 39.88C108.39 32.59 109.91 26.09 105.01 19.22C107.04 26.77 109.09 35.08 105.4 42.19C101.78 36.4 104.78 30.99 98.75 25.82C100.76 32.91 99.43 38.32 96.41 44.85C93.15 40.21 94.65 27.9 93.87 22.32C93.89 30 92.82 33.81 87.73 39.39C89.77 31.83 90.04 24.27 87.64 16.66C87.74 20.23 88.14 24.2 87.37 27.71C86.5 31.64 83.59 34.44 82.31 38.13C79.93 32.22 84.29 26.95 83.71 21.01C80.87 26.54 77.88 33.04 74 37.74C73.25 25.09 72.52 17.44 63.63 7.64C65.11 12.53 66.57 17.18 66.85 22.32C67.2 28.9 65.32 32.98 62.44 38.7C52.28 36.58 59.75 21.88 60.12 16.54C55.74 22.93 53.73 28.03 52.2 35.4C52.2 29.54 53.55 22.46 49.02 17.91C51.62 24.86 47.04 29.93 46.34 36.39C45.38 33.57 45.11 26.93 45.11 23.66C44.42 29.54 41.06 35.71 42.84 41.72C36.45 36.68 39.41 27.11 41.51 20.49C36.73 24.25 32.54 33.76 33.14 39.85C35.46 28.03 31.7 17 20.72 11.54C28.11 21.29 22.11 29.06 18.02 38.49C19.68 33.43 19.7 28.23 19.86 22.82C17.65 28.5 14.24 37.1 8.79 40.3C9.22 35.07 7.53001 28.77 3.84 25.04C5.58 30.99 5.75999 36.73 1.63 41.6C2.91 37.57 1.88 33.66 0.409996 29.94C1.62 33.52 -0.200005 38.67 -1.75001 42.09C-8.52 34.25 -4.67001 27.88 -0.140007 20.17C-7.69001 24.58 -10.09 33.03 -12.99 40.34C-13.61 30.64 -9.31001 20.88 -15.56 12.25C-14.6 21.68 -15.39 29.11 -19.18 38.09C-21.47 30.96 -19.52 24.16 -23.17 17.05C-24.35 24.75 -20.79 30.46 -25.73 37.72C-26.03 33.51 -25.05 25.34 -29.74 23.27C-29.94 29.32 -28.47 35.45 -28.96 41.61C-38.4 35.68 -34.8 26.46 -34.75 17.83C-42.81 21.52 -38.68 34.83 -43.91 40.84C-43.03 36.22 -43.36 30.59 -45.22 26.36C-44.47 31.07 -44.57 39.11 -48.31 42.59C-53.82 32.42 -49.1 25.16 -44.6 15.63C-48 17.57 -51.19 20.69 -52.76 24.44C-54.1 27.65 -53.04 31.59 -55.63 34.07C-58.81 29.84 -56.67 24.1 -62.11 21.06C-60.89 27.55 -56.28 37.22 -62.19 42.92C-62.13 37.89 -62.41 33.73 -65.19 29.46C-64.43 32.68 -64.14 37.92 -66.24 40.72C-70.53 37.44 -69.09 30.03 -66.99 25.93C-68.99 28.27 -70.6 31.33 -71.81 34.2C-73.02 37.07 -72.62 40.86 -74.03 43.03C-74.41 38.14 -74.96 33.04 -76.79 29.26C-76.1 34.73 -76.73 44.51 -83 47.06H367.04L366.97 47.05Z" fill="url(#paint1_linear_11_5)"/>
</g>
<defs>
<linearGradient id="paint0_linear_11_5" x1="143.35" y1="68.47" x2="143.35" y2="47.03" gradientUnits="userSpaceOnUse">
<stop offset="0.07" stop-color="#E4F5FD"/>
<stop offset="0.13" stop-color="#DBF2FC"/>
<stop offset="0.22" stop-color="#C5EBFB"/>
<stop offset="0.33" stop-color="#A1E0F9"/>
<stop offset="0.47" stop-color="#6ED1F6"/>
<stop offset="0.51" stop-color="#5BCBF5"/>
<stop offset="0.71" stop-color="#30A1D4"/>
<stop offset="0.94" stop-color="#0073B0"/>
</linearGradient>
<linearGradient id="paint1_linear_11_5" x1="141.95" y1="6" x2="141.95" y2="47.05" gradientUnits="userSpaceOnUse">
<stop offset="0.2" stop-color="#FBF06A"/>
<stop offset="0.3" stop-color="#F9EA67"/>
<stop offset="0.38" stop-color="#F2D85C"/>
<stop offset="0.54" stop-color="#E2A940"/>
<stop offset="0.66" stop-color="#D48128"/>
<stop offset="0.72" stop-color="#D27C27"/>
<stop offset="0.79" stop-color="#CD7027"/>
<stop offset="0.85" stop-color="#C55B26"/>
<stop offset="0.92" stop-color="#B93E25"/>
<stop offset="0.97" stop-color="#AF2224"/>
</linearGradient>
</defs>
</svg>
