<?xml version="1.0" encoding="UTF-8"?>
<svg id="Layer_1" xmlns="http://www.w3.org/2000/svg" xmlns:xlink="http://www.w3.org/1999/xlink" version="1.1" viewBox="0 0 680.27 285.44">
  <!-- Generator: Adobe Illustrator 29.1.0, SVG Export Plug-In . SVG Version: 2.1.0 Build 142)  -->
  <defs>
    <style>
      .st0 {
        fill: url(#linear-gradient2);
      }

      .st1 {
        fill: url(#linear-gradient1);
      }

      .st2 {
        fill: url(#linear-gradient3);
      }

      .st3 {
        fill: url(#linear-gradient6);
      }

      .st4 {
        fill: url(#linear-gradient5);
      }

      .st5 {
        fill: url(#linear-gradient4);
      }

      .st6 {
        fill: url(#linear-gradient);
      }

      .st7 {
        fill: #2da7df;
      }

      .st8 {
        fill: #98211f;
        font-family: FuturaPT-Demi, 'Futura PT';
        font-size: 37.37px;
        font-weight: 300;
        letter-spacing: -.02em;
      }

      .st9 {
        fill: #0c5189;
      }

      .st10 {
        fill: #fff;
        filter: url(#drop-shadow-1);
        font-family: MyriadPro-BlackSemiExt, 'Myriad Pro';
        font-size: 71.67px;
        font-weight: 800;
        letter-spacing: -.04em;
        stroke: #231f20;
        stroke-miterlimit: 10;
      }
    </style>
    <linearGradient id="linear-gradient" x1="335.63" y1="54.71" x2="335.63" y2="95.76" gradientUnits="userSpaceOnUse">
      <stop offset=".2" stop-color="#fbf06a"/>
      <stop offset=".3" stop-color="#f9ea67"/>
      <stop offset=".38" stop-color="#f2d85c"/>
      <stop offset=".54" stop-color="#e2a940"/>
      <stop offset=".66" stop-color="#d48128"/>
      <stop offset=".72" stop-color="#d27c27"/>
      <stop offset=".79" stop-color="#cd7027"/>
      <stop offset=".85" stop-color="#c55b26"/>
      <stop offset=".92" stop-color="#b93e25"/>
      <stop offset=".97" stop-color="#af2224"/>
    </linearGradient>
    <linearGradient id="linear-gradient1" x1="43.22" y1="155.74" x2="221.17" y2="155.74" gradientUnits="userSpaceOnUse">
      <stop offset=".06" stop-color="#089acf"/>
      <stop offset=".37" stop-color="#0a82b9"/>
      <stop offset=".97" stop-color="#0e5892"/>
    </linearGradient>
    <linearGradient id="linear-gradient2" x1="190.41" y1="214.73" x2="150.83" y2="146.17" gradientUnits="userSpaceOnUse">
      <stop offset=".06" stop-color="#089acf"/>
      <stop offset=".42" stop-color="#097bb1"/>
      <stop offset=".97" stop-color="#0c5189"/>
    </linearGradient>
    <linearGradient id="linear-gradient3" x1="-27.73" y1="155.62" x2="152.23" y2="155.62" gradientTransform="translate(603.86) rotate(-180) scale(1 -1)" xlink:href="#linear-gradient1"/>
    <linearGradient id="linear-gradient4" x1="327.31" y1="214.51" x2="287.73" y2="145.95" gradientTransform="translate(810.26) rotate(-180) scale(1 -1)" gradientUnits="userSpaceOnUse">
      <stop offset=".06" stop-color="#089acf"/>
      <stop offset=".42" stop-color="#097bb1"/>
      <stop offset=".97" stop-color="#0c5189"/>
    </linearGradient>
    <linearGradient id="linear-gradient5" x1="336.25" y1="93.88" x2="336.25" y2="171.65" xlink:href="#linear-gradient1"/>
    <filter id="drop-shadow-1" filterUnits="userSpaceOnUse">
      <feOffset dx="3.4" dy="3.4"/>
      <feGaussianBlur result="blur" stdDeviation="1.8"/>
      <feFlood flood-color="#231f20" flood-opacity=".9"/>
      <feComposite in2="blur" operator="in"/>
      <feComposite in="SourceGraphic"/>
    </filter>
    <linearGradient id="linear-gradient6" x1="338.4" y1="190.24" x2="338.4" y2="168.8" gradientUnits="userSpaceOnUse">
      <stop offset=".07" stop-color="#e4f5fd"/>
      <stop offset=".13" stop-color="#dbf2fc"/>
      <stop offset=".22" stop-color="#c5ebfb"/>
      <stop offset=".33" stop-color="#a1e0f9"/>
      <stop offset=".47" stop-color="#6ed1f6"/>
      <stop offset=".51" stop-color="#5bcbf5"/>
      <stop offset=".71" stop-color="#30a1d4"/>
      <stop offset=".94" stop-color="#0073b0"/>
    </linearGradient>
  </defs>
  <path class="st6" d="M560.65,95.76c-3.27-3.39-4.43-9.45-4.08-14.15-2.25,1.91-4.96,4.81-5.7,7.86.03-4.38-1.31-5.13-2.56-9.15,0,2.91-1.57,5.61-2.75,8.2-2.19-3.84-1.11-7.79-1.3-12.1-3.11,2.42-5.55,8.47-6.57,12.15-3.16-5.23-.8-9.72,1.27-14.83-1.99,2.55-4.59,4.67-6.04,7.66-1.42,2.93-1.17,6.02-2.1,8.99-3.32-7.03-.25-16.85-5.67-22.85-.28,3.63,1.38,6.78.71,10.5-.71,3.97-2.69,6.74-4.63,10.17-.22-6.66-.07-10.46-3.65-16.3.98,4.28.7,9.35-1.74,13.12.37-3.03-.12-6.82-2.22-9.08.45,4.4-.6,9.9-2.51,13.59-4.25-6.03-1.29-12.05-3.25-18.49.1,5.02-3.62,13.71-6.98,17.17-.39-7.4.03-14.22.82-21.55-2.54,5.37-2.88,13.64-7.07,17.93-.19-4.42-1.26-9.37-3.86-13.08,1.14,5.66.57,12.13,1.22,17.61-7.95-6.34-5.67-14.56-10.3-22.05,2.23,6.74,1.64,17.7-2.1,23.73-2.05-6.01-3.09-12.05-5.87-17.98.17,7.07-.82,11.59-4.54,17.62-.64-2.33.31-5.64.14-8.42-.23-3.79-2.49-6.25-2.28-10.08.35,4.04-2.01,7.8-2.17,11.83.21-3.27-.85-6.47-.86-9.75-.57,2.83-1.43,5.6-1.82,8.47.03-4.52-.93-8.96-.82-13.59-1.29,6.39-3.83,13.41-5.83,19.71.12-4.39-.03-8.04-1.43-12.14-1.2-3.51-4.01-6.18-5.24-9.88,2.51,7.57,1.96,13.52-1.16,20.73-4.6-6.38-6.68-14.26-5.07-22.11-2.58,7.28-3.08,14.96-4.28,22.55-.75-11.92-1.53-20.5-7.53-31.15,1.08,4.15,3.54,8.19,3.5,12.58-.06,6.36-4.19,13.74-8.05,18.6.03-3.26.01-6.37-.45-9.58-.41-2.87-2.22-6.12-1.75-8.99.63,5.73-.9,12.43-4.39,17.19-3.81-7.78-3.83-15.16-.42-23.35-7.32,7.1-5.18,16.51-10.2,24.22-.41-8.38.45-13.31-6.27-18.93,4.24,6.95.34,13.92-2.73,20.16.58-5.55-.48-10.82-3.04-15.62,1.34,5.12-.3,9.52-2.76,14-3.77-6.02-1.86-13.31-1.63-19.96-1.23,3.46-3.46,6.43-4.72,9.99-1.31,3.71-2.5,9-5.42,11.73-5.99-5.92-6.18-20.24.03-24.74-5.92,7.41-9.07,14.39-9.89,23.85.5-11.26.74-22.66-3.8-33.06,2.28,5.74,2.69,12.91,1.96,19-.59,4.93-3.49,8.24-5.15,12.62,1.73-6.12.2-18.18-5-22.5,3.08,7.2,3.48,14.42,1.36,22.04.11-7.57-1.6-10.07-5.26-16.57.8,4.6.65,10.54-1.27,14.91-6.73-8.26-2.66-15.76,1.14-24.13-5.47,7.25-11.5,12.14-12.77,21.84,0-7.2-1.82-16.49-7.61-21.51,5.23,8.89,3.17,17.7,1.32,27.38-6.11-8.13-4-12.01-4.12-21.58-5,7.03-7.97,13.41-10.33,21.49-.24-3.04.39-6.39-.07-9.42-.7-4.58-3.88-7.06-6.55-10.68,1.21,6.59,1.24,13.12-1.56,19.34-9.49-7.12-1.41-21.17-.79-30.04-8.09,8.66-8.1,20.6-8.93,31.69-3.14-7.29-1.62-13.79-6.52-20.66,2.03,7.55,4.08,15.86.39,22.97-3.62-5.79-.62-11.2-6.65-16.37,2.01,7.09.68,12.5-2.34,19.03-3.26-4.64-1.76-16.95-2.54-22.53.02,7.68-1.05,11.49-6.14,17.07,2.04-7.56,2.31-15.12-.09-22.73.1,3.57.5,7.54-.27,11.05-.87,3.93-3.78,6.73-5.06,10.42-2.38-5.91,1.98-11.18,1.4-17.12-2.84,5.53-5.83,12.03-9.71,16.73-.75-12.65-1.48-20.3-10.37-30.1,1.48,4.89,2.94,9.54,3.22,14.68.35,6.58-1.53,10.66-4.41,16.38-10.16-2.12-2.69-16.82-2.32-22.16-4.38,6.39-6.39,11.49-7.92,18.86,0-5.86,1.35-12.94-3.18-17.49,2.6,6.95-1.98,12.02-2.68,18.48-.96-2.82-1.23-9.46-1.23-12.73-.69,5.88-4.05,12.05-2.27,18.06-6.39-5.04-3.43-14.61-1.33-21.23-4.78,3.76-8.97,13.27-8.37,19.36,2.32-11.82-1.44-22.85-12.42-28.31,7.39,9.75,1.39,17.52-2.7,26.95,1.66-5.06,1.68-10.26,1.84-15.67-2.21,5.68-5.62,14.28-11.07,17.48.43-5.23-1.26-11.53-4.95-15.26,1.74,5.95,1.92,11.69-2.21,16.56,1.28-4.03.25-7.94-1.22-11.66,1.21,3.58-.61,8.73-2.16,12.15-6.77-7.84-2.92-14.21,1.61-21.92-7.55,4.41-9.95,12.86-12.85,20.17-.62-9.7,3.68-19.46-2.57-28.09.96,9.43.17,16.86-3.62,25.84-2.29-7.13-.34-13.93-3.99-21.04-1.18,7.7,2.38,13.41-2.56,20.67-.3-4.21.68-12.38-4.01-14.45-.2,6.05,1.27,12.18.78,18.34-9.44-5.93-5.84-15.15-5.79-23.78-8.06,3.69-3.93,17-9.16,23.01.88-4.62.55-10.25-1.31-14.48.75,4.71.65,12.75-3.09,16.23-5.51-10.17-.79-17.43,3.71-26.96-3.4,1.94-6.59,5.06-8.16,8.81-1.34,3.21-.28,7.15-2.87,9.63-3.18-4.23-1.04-9.97-6.48-13.01,1.22,6.49,5.83,16.16-.08,21.86.06-5.03-.22-9.19-3-13.46.76,3.22,1.05,8.46-1.05,11.26-4.29-3.28-2.85-10.69-.75-14.79-2,2.34-3.61,5.4-4.82,8.27s-.81,6.66-2.22,8.83c-.38-4.89-.93-9.99-2.76-13.77.69,5.47.06,15.25-6.21,17.8h450.04Z"/>
  <g>
    <polygon class="st1" points="43.22 193.03 80.22 155.61 43.69 119.08 221.17 118.45 221.17 193.03 43.22 193.03"/>
    <path class="st7" d="M218.67,120.96v69.56H49.21l31.04-31.39,3.5-3.54-3.52-3.52-30.53-30.53,168.97-.6M223.67,115.94l-185.99.66,39.02,39.02-39.46,39.9h186.44v-79.58h0Z"/>
  </g>
  <polygon class="st0" points="105.29 172.47 223.67 195.53 223.67 167.15 105.29 172.47"/>
  <g>
    <polygon class="st2" points="451.64 192.91 451.64 118.34 631.12 118.97 594.59 155.5 631.59 192.91 451.64 192.91"/>
    <path class="st7" d="M454.14,120.85l170.97.6-30.52,30.52-3.52,3.52,3.5,3.54,31.04,31.39h-171.46v-69.56M449.14,115.83v79.58h188.44l-39.46-39.9,39.02-39.02-188-.66h0Z"/>
  </g>
  <polygon class="st5" points="568.07 172.25 449.69 195.3 449.69 166.93 568.07 172.25"/>
  <rect class="st4" x="104.77" y="93.88" width="462.96" height="77.78"/>
  <rect class="st7" x="104.75" y="92.73" width="462.96" height="5.99"/>
  <text class="st10" transform="translate(131.72 155.97) scale(1.09 1)"><tspan x="0" y="0">HILLESTAD</tspan></text>
  <text class="st8" transform="translate(103.18 229.22) scale(1.04 1)"><tspan x="0" y="0">Heating and Cooling Systems</tspan></text>
  <path class="st3" d="M112.05,168.8c.49,3.1,1.73,8.22,2.19,11.41.33,2.26-.33,7.55,1.11,9.21,3.84,4.41,2.46-10.62,5.45-12.79,1.68,1.73,1.28,4.09,1.98,5.96,2.04-1.75,1.46-9.92,5.79-5.24.84.91.18,5.24,2.07,5.46,2.48.29,1.66-4.19,2.63-5.2,5.1-5.24,3.17,8.21,5.58,10.03,4.26,3.23,2.47-7.48,3.44-9.66,1.31-2.92,2.58-3.76,5.38-2.24,3.46,1.88,2.07,4.59,3.47,7.86,3.57-1.61,2.39-4.89,4.34-7.05,4.91-5.4,5.42,4.15,6.25,6,3.75,8.43,3.73.43,5.61-3.45,1.09-2.44,2.38-8.08,5.32-4.66,1.79,2.09-.57,7.83,3.33,7.98.64-2.26.2-6.91,1.64-8.81,3.94,1.46.88,7.86,5.34,8.65,1.48-1.9-.09-4.76,1.43-6.51,2.82-3.24,1.85,2.15,3.43,2.6,2.39.68,3.48-1.69,5.32-2.37,2.96-1.09,5.12-.64,8.01.12,2.14.56,5.12,2.55,7.43,1.89,1.87-.53,1.8-2.85,4.06-3.24,6.65-1.17,3.41,7.85,6.57,10.17,1.59-2.94.39-10.36,4.57-10.15,3.85.19,2.22,7.94,5.63,10.13,1.13-1.56.61-9.64,3.9-8.12,2.84,1.32-.32,9.82,3.34,11.7,1.75-2.78.39-6.66,1.77-9.46,2.67-5.42,4.83-1.34,4.91,2.79,3.88-.2.7-4.18,3-5.2,2.82-1.24,2.25,3.55,2.68,4.59,2.95,7.15,2.3-.98,4.01-3.83.54,1.79.78,4.14,1.41,6.24,2.47-1.53.22-5.25,2.94-7.01.13,3.95.87,10.23,3.18,13.32,3.5-3.19-1.11-10.58,3.89-12.85.95.98,1.19,2.13,1,3.48-.29,2.07,1.39,7.17,4.8,6.25,2.21-.6,2.2-4.99,2.72-6.72,3.04-9.97,2.02,2.42,4.83,3.98.48-2.58.59-5.57,2.84-7.44,3.25,2.51-.41,8.97,3.91,10.86,1-1.99.78-9.18,3.6-9.95,3.89-1.07,3.51,9.37,6.92,10.5.63-2.6,1.27-8.6,4.45-8.73.47,6.87,4.65-.43,6.5-.53,3.84-.2,3.34,7.36,5.52,9.71,3.29-1.48,2.06-6,5.07-7.5,4.02-2.01,3.04,4.79,5.25,6.95,2.62-2.67.61-14.08,6.11-12.48,2.66,1.33,3.21,6.47,3.66,8.65,2,9.64,4.09-1.16,5.65-4.41,1.73-3.59,3.26-4.06,4.39-.24.71,2.39-1.98,7.82,2.65,7.7.64-2.14-.47-6.71.82-8.47,2.81-3.84,3.43,1.4,4.07,3.87s1.73,8.76,4.04,5c1.52-2.47-.81-6.77.96-9.58,2.7-.43,3.03,2.21,3.58,4.31.32-.59,1.48-3.05,2.31-3.3,3.5-1.06,2.31.36,3.89,2.36,4.52,5.69,1.52.25,5.87-1.47,5.66-2.24,4.09,7.79,8.44,7.72,3.47-.06,2.74-7.56,7.28-7.95s2.05,3.57,4.68,4.01c1.65.28,2.09-2.87,3.32-3.24,5.28-1.58,2.8,4.9,4.51,7.89,4.61,8.06,2.56-16.43,7.49-8.66.7,1.1-.81,5.01,1.3,5.37,2.72.47,1.63-3.67,2.22-4.5,4.32-6.13,3.72,2.6,5.22,5.63,1.95-2.09.4-8.69,5-8.83,4.95-.16-.38,8.64,4.22,8.47,3.3-.12-.18-8.61,3.97-9.23,4.41-.66,3.78,8.59,4.76,10.92,2.01-1.88,1.07-3.95,2.07-6.28,1.27-2.92.2-3.89,2.71-5.76,4.91-3.66,6.07,5.09,8.07,7.69,2.67-1.1,1.84-8.83,6.38-6.16,3.7,2.18-.83,10.08,4.55,10.6.26-2.29-.05-7.65,2.61-8.93,4.71-2.27,3.55,4.46,5.11,6.7,2.98-1.91,2.43-8.56,6.38-7.13,3.5,1.27,1.16,6.48,4.49,8.46,1.75-2.24.94-5.32,3.18-7.26,3.45-3,1.28.9,3.52,2.72,3.32,2.69,9.06-9.46,10.35,1.02,1.84-1.07,2.49-5.44,5.23-5.32,3.4.15,2.25,5.41,4.69,6.65,3.9,1.96,5.6-5.04,6.62-7.38,3.33-7.65,6.23-.52,6.5,4.27,2.24-.4,4.03-5.07,6.82-3.29,1.54.99-.53,8.07,2.76,7.71,1.85-.2,1.61-6.36,3.73-7.38,4.8-2.29,3.7,3.67,5.32,5.62,3.2-1.27,1.32-7.43,6.5-6.08-.22,2.68-1.58,7.32,1.42,8.86,2.77-2.41.54-6.72,3.98-9.24,1.12,2.47.89,12.32,3.76,4.52.49-1.34-.36-5.37,2.2-4.91,1.72.31,1.65,4.95,1.64,6.39.3.05.61.12.81.33,2.1-1.33,1.46-4.04,3.22-5.86.39,4.35,1.35,5.58,2.88,1.06.86-2.54,3.03-7.55,4.98-10.32H112.05Z"/>
  <rect class="st9" x="104.75" y="166.28" width="462.96" height="5.99"/>
</svg>